<svg width="195" height="164" viewBox="0 0 195 164" fill="none" xmlns="http://www.w3.org/2000/svg">
<circle cx="97" cy="82" r="82" fill="#122138"/>
<path d="M36.375 85.1932V78.1023L61.0568 67.7386V75.4943L44.7614 81.5795L45.017 81.2045V82.108L44.7614 81.7159L61.0568 87.8182V95.5568L36.375 85.1932ZM97.5554 64.0909V99H90.3963L76.5043 78.8523H76.2827V99H67.8452V64.0909H75.1065L88.8452 84.2045H89.1349V64.0909H97.5554ZM129.332 62.4545L118.082 104.25H110.974L122.224 62.4545H129.332ZM158.604 88.4659L133.922 98.8295V91.0909L150.217 84.9886L149.979 85.3807V84.4773L150.217 84.8523L133.922 78.767V71.0114L158.604 81.375V88.4659Z" fill="#00D0B7"/>
</svg>
